<?xml version="1.0" encoding="UTF-8" standalone="no"?>
<!-- Created with Inkscape (http://www.inkscape.org/) -->

<svg
   width="210mm"
   height="297mm"
   viewBox="0 0 210 297"
   version="1.1"
   id="svg1"
   inkscape:version="1.4-dev (1:1.4.0-dev+202403210151+2fe0648968)"
   sodipodi:docname="Reto-08.svg"
   xmlns:inkscape="http://www.inkscape.org/namespaces/inkscape"
   xmlns:sodipodi="http://sodipodi.sourceforge.net/DTD/sodipodi-0.dtd"
   xmlns="http://www.w3.org/2000/svg"
   xmlns:svg="http://www.w3.org/2000/svg">
  <sodipodi:namedview
     id="namedview1"
     pagecolor="#ffffff"
     bordercolor="#000000"
     borderopacity="0.25"
     inkscape:showpageshadow="2"
     inkscape:pageopacity="0.0"
     inkscape:pagecheckerboard="0"
     inkscape:deskcolor="#d1d1d1"
     inkscape:document-units="mm"
     inkscape:zoom="0.71535494"
     inkscape:cx="399.80153"
     inkscape:cy="568.24938"
     inkscape:window-width="1854"
     inkscape:window-height="1011"
     inkscape:window-x="66"
     inkscape:window-y="32"
     inkscape:window-maximized="1"
     inkscape:current-layer="layer1" />
  <defs
     id="defs1">
    <inkscape:path-effect
       effect="bspline"
       id="path-effect8"
       is_visible="true"
       lpeversion="1.3"
       weight="33.333333"
       steps="2"
       helper_size="0"
       apply_no_weight="true"
       apply_with_weight="true"
       only_selected="false"
       uniform="false" />
  </defs>
  <g
     inkscape:label="Capa 1"
     inkscape:groupmode="layer"
     id="layer1">
    <path
       style="fill:#0eff12;stroke:#000000;stroke-width:0.738"
       d="m 38.095891,139.80822 137.219179,0.36986 0.36986,24.78082 h 21.08219 l -1.10959,23.30137 h -17.38356 v 32.91781 H 32.178082 v -32.91781 l -19.232877,-1.10959 -0.369863,-22.9315 18.493152,-0.73973 0.369861,-23.67123 z"
       id="path1" />
    <path
       style="fill:#0eff12;stroke:#000000;stroke-width:0.738"
       d="m 72.49315,139.06849 c 0,0 -23.671234,-51.041095 -25.150686,-50.671231 -1.479452,0.369864 -9.452208,8.880197 -15.904109,5.917808 -6.451901,-2.962389 -13.646108,-14.796644 -8.876711,-24.041094 4.769397,-9.24445 26.6806,-14.463236 35.506848,-9.61644 8.826248,4.846796 9.752392,17.517041 7.027397,22.561645 -2.724995,5.044604 -18.505326,-5.648087 -10.356164,2.958904 8.149162,8.606991 24.41096,52.890408 24.41096,52.890408 z"
       id="path2"
       sodipodi:nodetypes="czzzzzzcc" />
    <path
       style="fill:#0eff12;stroke:#000000;stroke-width:0.738"
       d="m 124.27397,139.80822 c 0,0 22.33324,-39.78626 16.64384,-50.301373 -5.6894,-10.515109 -15.15685,1.93986 -18.12329,-4.808217 -2.96644,-6.748077 1.12289,-18.279289 11.83561,-22.561645 10.71272,-4.282356 38.31205,3.617607 41.42466,14.054796 3.11261,10.437189 -14.79452,17.013696 -13.31507,17.013698 1.47946,2e-6 -3.03783,-7.632321 -12.57534,-2.21918 -9.53751,5.413141 -18.86301,49.561641 -18.86301,49.561641 z"
       id="path3"
       sodipodi:nodetypes="czzzzzzcc" />
    <ellipse
       style="fill:#ffffff;stroke:#000000;stroke-width:0.738;fill-opacity:1"
       id="path4"
       cx="64.726028"
       cy="171.9863"
       rx="11.465754"
       ry="15.904109" />
    <ellipse
       style="fill:#ffffff;fill-opacity:1;stroke:#000000;stroke-width:0.738"
       id="path5"
       cx="144.9863"
       cy="174.76028"
       rx="8.1369858"
       ry="14.60959" />
    <ellipse
       style="fill:#000000;fill-opacity:1;stroke:#000000;stroke-width:0.738"
       id="path6"
       cx="68.979454"
       cy="180.67809"
       rx="4.2534246"
       ry="4.6232877" />
    <ellipse
       style="fill:#000000;fill-opacity:1;stroke:#000000;stroke-width:0.738"
       id="path7"
       cx="147.57535"
       cy="182.15753"
       rx="3.3287671"
       ry="3.8835616" />
    <path
       style="fill:#000000;fill-opacity:1;stroke:#000000;stroke-width:0.738"
       d="m 86.30137,210.20548 c 0,0 32.30137,-0.24658 32.30105,-0.24657 -3.3e-4,0 -32.30105,0.24657 -32.30105,0.24657 z"
       id="path8"
       inkscape:path-effect="#path-effect8"
       inkscape:original-d="m 54,210.45205 c 32.30137,-0.24657 64.60274,-0.49315 96.90411,-0.73972 -32.30202,0.24658 -64.60274,0.49315 -96.90411,0.73972 z" />
    <text
       xml:space="preserve"
       style="font-size:14.8167px;text-align:start;writing-mode:lr-tb;direction:ltr;text-anchor:start;fill:#000000;fill-opacity:1;stroke:#000000;stroke-width:0.738"
       x="80.999992"
       y="34.027397"
       id="text8"><tspan
         sodipodi:role="line"
         id="tspan8"
         style="font-size:14.8167px;stroke-width:0.738"
         x="80.999992"
         y="34.027397">Shrek</tspan></text>
    <text
       xml:space="preserve"
       style="font-size:14.8167px;text-align:start;writing-mode:lr-tb;direction:ltr;text-anchor:start;fill:#000000;fill-opacity:1;stroke:#000000;stroke-width:0.738"
       x="11.465749"
       y="261.12329"
       id="text9"><tspan
         sodipodi:role="line"
         id="tspan9"
         style="stroke-width:0.738"
         x="11.465749"
         y="261.12329">los del gancho en toy story</tspan></text>
  </g>
</svg>
