<?xml version="1.0" encoding="UTF-8" standalone="no"?>
<!-- Created with Inkscape (http://www.inkscape.org/) -->

<svg
   width="210mm"
   height="297mm"
   viewBox="0 0 210 297"
   version="1.1"
   id="svg1"
   inkscape:version="1.4-dev (1:1.4.0-dev+202403210151+2fe0648968)"
   sodipodi:docname="Reto-05.svg"
   xmlns:inkscape="http://www.inkscape.org/namespaces/inkscape"
   xmlns:sodipodi="http://sodipodi.sourceforge.net/DTD/sodipodi-0.dtd"
   xmlns="http://www.w3.org/2000/svg"
   xmlns:svg="http://www.w3.org/2000/svg">
  <sodipodi:namedview
     id="namedview1"
     pagecolor="#ffffff"
     bordercolor="#000000"
     borderopacity="0.25"
     inkscape:showpageshadow="2"
     inkscape:pageopacity="0.0"
     inkscape:pagecheckerboard="0"
     inkscape:deskcolor="#d1d1d1"
     inkscape:document-units="mm"
     inkscape:zoom="0.71535494"
     inkscape:cx="397.00572"
     inkscape:cy="561.25984"
     inkscape:window-width="1854"
     inkscape:window-height="1011"
     inkscape:window-x="66"
     inkscape:window-y="32"
     inkscape:window-maximized="1"
     inkscape:current-layer="layer1" />
  <defs
     id="defs1" />
  <g
     inkscape:label="Capa 1"
     inkscape:groupmode="layer"
     id="layer1">
    <path
       sodipodi:type="star"
       style="fill:#ffbb00;stroke:#000000;stroke-width:0.738;fill-opacity:1"
       id="path1"
       inkscape:flatsided="false"
       sodipodi:sides="11"
       sodipodi:cx="9.9863005"
       sodipodi:cy="23.301369"
       sodipodi:r1="25.987976"
       sodipodi:r2="12.993988"
       sodipodi:arg1="-0.42544964"
       sodipodi:arg2="-0.13985031"
       inkscape:rounded="0"
       inkscape:randomized="0"
       d="m 33.657533,12.575341 -10.804106,8.914732 12.845309,5.585622 -13.90866,1.658409 7.786347,11.643622 L 16.97911,34.253279 17.234385,48.258135 9.9479766,36.2953 2.5911304,48.214947 2.9290106,34.21184 -9.7042096,40.261873 -1.8493157,28.664382 -15.747952,26.92396 -2.8699175,21.414206 -13.621251,12.435899 0.19123903,14.76319 -3.9993189,1.3975482 6.3622584,10.822986 10.062948,-2.6864943 13.683885,10.84458 24.10088,1.480426 19.831555,14.821116 Z"
       inkscape:transform-center-x="0.010908246"
       inkscape:transform-center-y="-0.51554873"
       transform="translate(25.150685,8.5068493)" />
    <path
       sodipodi:type="star"
       style="fill:#39e3d1;stroke:#000000;stroke-width:0.738;fill-opacity:1"
       id="path2"
       inkscape:flatsided="false"
       sodipodi:sides="65"
       sodipodi:cx="7.3972602"
       sodipodi:cy="23.301369"
       sodipodi:r1="26.516884"
       sodipodi:r2="13.258441"
       sodipodi:arg1="2.6155262"
       sodipodi:arg2="2.6638584"
       inkscape:rounded="0"
       inkscape:randomized="0"
       d="m -15.534247,36.616439 11.1574956,-7.21926 -12.3355326,4.94389 11.8021674,-6.108703 -12.7551004,3.730259 12.3366458,-4.941112 -13.0555768,2.4818 12.75594,-3.727387 -13.234157,1.21017 13.0561354,-2.478861 -13.2891734,-0.07276 13.2344292,-1.20719 -13.2201122,-1.355011 13.2891566,0.07575 -13.0276186,-2.62461 13.2198069,1.357987 L -18.313231,16.8117 -5.2862033,19.439244 -17.566861,14.360576 -4.8542434,18.233143 -16.587409,11.99293 -4.3078946,17.074362 -15.384018,9.7308673 -3.6522578,15.973722 -13.967924,7.5955089 -2.8934547,14.941498 -12.352349,5.6067919 -2.03857,13.987327 -10.552378,3.7832844 -1.0955854,13.12012 -8.5848157,2.142012 -0.07330544,12.347972 -6.4680331,0.69829876 1.0187252,11.678093 -4.2217939,-0.53437567 2.1703105,11.116737 -1.8670708,-1.5445022 3.3706984,10.669146 0.57415091,-2.3226495 4.6086812,10.339498 3.0790781,-2.8615522 5.8727002,10.130872 5.6243231,-3.1561789 7.1509537,10.045216 8.1861214,-3.2037785 8.4315068,10.083328 10.740554,-3.0039067 9.7024035,10.244854 13.263772,-2.5584296 10.951778,10.528285 15.732215,-1.8715066 12.167964,10.930975 18.122838,-0.94955116 13.339608,11.449164 20.413318,0.19882854 14.45577,12.078014 22.582271,1.5629104 15.506028,12.811653 24.609446,3.1299584 16.480577,13.643232 26.475915,4.8853415 17.370317,14.564986 28.164252,6.81267 l -9.99731,8.755639 11.491751,-6.6743599 -10.79568,7.7498849 12.082272,-5.534088 -11.493253,6.671773 12.559984,-4.342146 -12.083518,5.531368 12.920427,-3.109662 -12.560962,4.339318 13.160235,-1.848144 -12.921126,3.106752 13.27717,-0.569369 -13.160651,1.84518 13.270139,0.71472 -13.277298,0.56638 13.139209,1.992137 -13.269978,-0.717708 12.885602,3.250953 -13.13876,-1.995095 12.511684,4.479416 -12.884869,-3.253854 12.020949,5.666057 -12.510675,-4.482234 11.417977,6.799794 -12.019673,-5.668763 10.7084,7.870044 -11.416447,-6.802365 9.898841,8.866814 -10.706628,-7.872455 8.996858,9.780796 -9.896843,-8.869043 8.010874,10.603458 -8.994655,-9.782822 6.950095,11.327118 -8.008487,-10.605261 5.824425,11.94502 -6.947544,-11.328683 4.644374,12.451394 -5.821736,-11.946331 3.42096,12.841513 -4.64157,-12.452439 2.165604,13.111734 L 9.556351,36.382828 10.44638,49.642363 8.2837286,36.530142 7.8898734,49.813676 7.0028295,36.553941 5.3287669,49.737451 5.7256131,36.454005 2.7869734,49.4144 4.4640044,36.231267 0.2882249,48.847538 3.2297828,35.887805 -2.1441485,48.042158 2.0344717,35.426828 -4.4874362,47.00578 0.88923158,34.852638 -6.7197598,45.748081 -0.19524485,34.170597 -8.8202766,44.280802 l 7.6114445,-10.893729 -9.5605429,9.230571 8.6273084,-10.108262 -10.4067894,8.264754 9.562621,-9.228419 -11.15587,7.221772 10.4086496,-8.262411 z"
       transform="translate(78.780822,17.383562)" />
    <path
       sodipodi:type="star"
       style="fill:#e2e339;stroke:#000000;stroke-width:0.738;fill-opacity:1"
       id="path3"
       inkscape:flatsided="true"
       sodipodi:sides="20"
       sodipodi:cx="45.86301"
       sodipodi:cy="108.73973"
       sodipodi:r1="32.226936"
       sodipodi:r2="31.83017"
       sodipodi:arg1="0.16137511"
       sodipodi:arg2="0.31845474"
       inkscape:rounded="0"
       inkscape:randomized="0"
       d="m 77.671231,113.91781 -3.156921,9.57585 -5.961509,8.13163 -8.182544,5.89143 -9.602615,3.07454 -10.082714,-0.0433 -9.575847,-3.15692 -8.13163,-5.96151 -5.891432,-8.18254 -3.074539,-9.60262 0.04331,-10.08271 3.156921,-9.575849 5.961509,-8.13163 8.182544,-5.891432 9.602615,-3.074539 10.082714,0.04331 9.575847,3.156921 8.13163,5.961509 5.891432,8.182545 3.074539,9.602615 z"
       inkscape:transform-center-y="-1.3699493e-06" />
    <path
       sodipodi:type="star"
       style="fill:#a2f19c;fill-opacity:1;stroke:#000000;stroke-width:0.738"
       id="path4"
       inkscape:flatsided="true"
       sodipodi:sides="10"
       sodipodi:cx="99.123291"
       sodipodi:cy="92.465752"
       sodipodi:r1="24.436165"
       sodipodi:r2="23.240173"
       sodipodi:arg1="-0.045423279"
       sodipodi:arg2="0.26873599"
       inkscape:rounded="0"
       inkscape:randomized="0"
       d="m 123.53425,91.356163 -4.00988,14.560317 -11.8024,9.42259 -15.086799,0.68577 -12.608561,-8.31301 -5.314279,-14.136489 4.009878,-14.560315 11.802399,-9.422595 15.086802,-0.685764 12.60856,8.313006 z"
       inkscape:transform-center-x="1.3606299e-06"
       inkscape:transform-center-y="-1.0624096e-06"
       transform="translate(-0.36986301,0.36986301)" />
    <path
       style="fill:#1c1197;stroke:#000000;stroke-width:0.738;fill-opacity:1"
       d="M 24.041095,252.61644 96.904108,203.05479 73.1697,168.16167 48.437479,184.9846 93.114989,250.66721 47.733648,281.53574 26.790546,250.74625 Z"
       id="path5" />
    <path
       style="fill:#39e36d;stroke:#000000;stroke-width:0.738;fill-opacity:1"
       d="m 147.57534,243.36986 3.69863,-217.109586 -18.76992,-0.287295 -2.01898,131.906401 61.55079,0.94211 2.08536,-136.243733 -18.36996,-0.281173 -3.9085,255.355126 -49.84246,-0.7629 1.09163,-71.31968 76.08715,1.1646 -0.71932,46.99556 -60.93009,-0.9326 0.22394,-14.6307 17.99452,0.27543 -0.0773,5.05235 z"
       id="path6" />
    <path
       sodipodi:type="star"
       style="fill:#fbfc20;stroke:#000000;stroke-width:0.738;fill-opacity:1"
       id="path7"
       inkscape:flatsided="false"
       sodipodi:sides="4"
       sodipodi:cx="18.863014"
       sodipodi:cy="157.56165"
       sodipodi:r1="17.941216"
       sodipodi:r2="8.9706078"
       sodipodi:arg1="0.24997862"
       sodipodi:arg2="1.0353768"
       inkscape:rounded="0"
       inkscape:randomized="0"
       d="m 36.246576,162 -12.806741,3.27686 -9.015177,9.66835 -3.276857,-12.80674 -9.6683482,-9.01518 12.8067402,-3.27686 9.015177,-9.66835 3.276857,12.80674 z"
       inkscape:transform-center-y="-1.9850286e-06" />
    <path
       sodipodi:type="star"
       style="fill:#5f39e3;stroke:#000000;stroke-width:0.738;fill-opacity:1"
       id="path8"
       inkscape:flatsided="false"
       sodipodi:sides="3"
       sodipodi:cx="102.45205"
       sodipodi:cy="147.57533"
       sodipodi:r1="21.240572"
       sodipodi:r2="10.620287"
       sodipodi:arg1="1.4486012"
       sodipodi:arg2="3.0193975"
       inkscape:rounded="0"
       inkscape:randomized="0"
       d="m 105.04109,168.65752 -13.130137,-19.78767 -9.011137,-9.59344 23.701694,-1.47719 12.81373,-3.00716 -10.57156,21.26487 z"
       inkscape:transform-center-x="1.2907345e-06"
       inkscape:transform-center-y="-1.8592169e-06" />
    <path
       sodipodi:type="star"
       style="fill:#e33939;stroke:#000000;stroke-width:0.738;fill-opacity:1"
       id="path9"
       inkscape:flatsided="false"
       sodipodi:sides="3"
       sodipodi:cx="161.99998"
       sodipodi:cy="67.684929"
       sodipodi:r1="17.757277"
       sodipodi:r2="8.8786383"
       sodipodi:arg1="1.5916266"
       sodipodi:arg2="2.6388242"
       inkscape:rounded="0"
       inkscape:randomized="0"
       d="M 161.63012,85.438353 154.22006,71.96313 146.81,58.487907 l 15.37492,0.32031 15.37491,0.32031 -7.96485,13.154913 z"
       inkscape:transform-center-x="-0.18492946"
       inkscape:transform-center-y="4.2781999" />
    <path
       sodipodi:type="star"
       style="fill:#000000;stroke:#000000;stroke-width:0.738;fill-opacity:1"
       id="path10"
       inkscape:flatsided="false"
       sodipodi:sides="2"
       sodipodi:cx="117.61644"
       sodipodi:cy="187.1507"
       sodipodi:r1="17.575306"
       sodipodi:r2="8.787653"
       sodipodi:arg1="0.14784937"
       sodipodi:arg2="1.7186457"
       inkscape:rounded="0"
       inkscape:randomized="0"
       d="m 135,189.73974 -18.67808,6.10274 -16.08904,-11.28083 18.67808,-6.10274 z"
       inkscape:transform-center-x="1.4817819e-06"
       inkscape:transform-center-y="-2.3578039e-06" />
    <path
       sodipodi:type="star"
       style="fill:#397ee3;stroke:#000000;stroke-width:0.738;fill-opacity:1"
       id="path11"
       inkscape:flatsided="true"
       sodipodi:sides="7"
       sodipodi:cx="21.821917"
       sodipodi:cy="205.27397"
       sodipodi:r1="21.956284"
       sodipodi:r2="19.781931"
       sodipodi:arg1="0.56931319"
       sodipodi:arg2="1.0181121"
       inkscape:rounded="0"
       inkscape:randomized="0"
       d="M 40.315066,217.10959 24.09875,227.11188 6.1679314,220.66979 0.02488317,202.63433 10.295446,186.58657 l 18.95023,-1.97576 13.359988,13.58402 z"
       inkscape:transform-center-x="0.50664334"
       inkscape:transform-center-y="0.58737358" />
    <path
       sodipodi:type="star"
       style="fill:#f6bae9;stroke:#000000;stroke-width:0.738;fill-opacity:1"
       id="path12"
       inkscape:flatsided="true"
       sodipodi:sides="6"
       sodipodi:cx="187.8904"
       sodipodi:cy="274.8082"
       sodipodi:r1="8.7290812"
       sodipodi:r2="7.5596056"
       sodipodi:arg1="0.63502674"
       sodipodi:arg2="1.1586255"
       inkscape:rounded="0"
       inkscape:randomized="0"
       d="m 194.91779,279.98628 -7.99805,3.49686 -7.02739,-5.17808 0.97065,-8.67495 7.99805,-3.49686 7.0274,5.17808 z"
       inkscape:transform-center-x="2.3671232e-06"
       inkscape:transform-center-y="-3.4621507e-06" />
    <path
       sodipodi:type="star"
       style="fill:#e33958;stroke:#000000;stroke-width:0.738;fill-opacity:1"
       id="path13"
       inkscape:flatsided="true"
       sodipodi:sides="27"
       sodipodi:cx="91.726028"
       sodipodi:cy="270.36984"
       sodipodi:r1="12.651261"
       sodipodi:r2="6.3256307"
       sodipodi:arg1="0.26625205"
       sodipodi:arg2="0.38260733"
       inkscape:rounded="0"
       inkscape:randomized="0"
       d="m 103.93151,273.69861 -1.09667,2.72505 -1.69554,2.39869 -2.203022,1.94301 -2.591724,1.38258 -2.84071,0.74763 -2.936552,0.0724 -2.874084,-0.60681 -2.656674,-1.25326 -2.296042,-1.83215 -1.811629,-2.31226 -1.229551,-2.66773 -0.581188,-2.87938 0.09851,-2.93579 0.772893,-2.83394 1.40561,-2.57931 1.962552,-2.18562 2.413691,-1.67412 2.734708,-1.07236 2.908295,-0.41278 2.925097,0.26904 2.784205,0.93637 2.493216,1.5532 2.067821,2.08632 1.53094,2.50695 0.91153,2.79243 0.24298,2.92738 z"
       inkscape:transform-center-x="-1.6099702"
       inkscape:transform-center-y="-1.6643869" />
    <path
       style="fill:#f3f6ba;fill-opacity:1;stroke:#000000;stroke-width:0.738"
       d="m 96.534247,244.47945 8.506853,-14.79452 -13.249581,-7.81385 24.715331,-9.56971 3.69863,24.41096 -7.0274,-4.80822 -9.61644,17.38356 z"
       id="path14" />
    <path
       style="fill:#f6baec;fill-opacity:1;stroke:#000000;stroke-width:0.738"
       d="M 171.9863,9.6164383 72.863013,4.438356 124.64383,18.493151 156.08219,2.219178 l -4.80822,18.49315 -30.69863,-9.246575 12.20548,-8.8767119 2.95891,27.3698619 -18.86302,-2.219177 -2.9589,-18.1232877 -5.54795,10.3561637 19.60274,1.10959 -10.35616,-19.60274 50.67123,17.013699 -17.0137,8.876711 5.17808,-16.273972 31.80822,7.027397 1.84932,-12.2054789 -13.31507,8.1369859 19.60274,2.589041 1.10959,-9.6164377 -5.17808,7.7671227 10.72602,3.328767 c 0,0 3.32877,-14.4246568 1.10959,-9.2465748 -2.21918,5.1780818 -4.43836,29.9589028 -4.43836,29.9589028 V 5.178082 h -24.04109 z"
       id="path15" />
    <path
       style="fill:#baf6f4;fill-opacity:1;stroke:#000000;stroke-width:0.738"
       d="m 52.150684,153.49315 -11.835617,18.12329 34.027398,-14.0548 c 0,0 -13.315068,-8.87671 -12.945205,-6.65753 0.369861,2.21918 -2.958904,20.71233 -2.958904,20.71233"
       id="path17" />
  </g>
</svg>
