<?xml version="1.0" encoding="UTF-8" standalone="no"?>
<!-- Created with Inkscape (http://www.inkscape.org/) -->

<svg
   width="297mm"
   height="210mm"
   viewBox="0 0 297 210"
   version="1.1"
   id="svg1"
   inkscape:version="1.2.1 (9c6d41e410, 2022-07-14)"
   sodipodi:docname="Reto-05.svg"
   xmlns:inkscape="http://www.inkscape.org/namespaces/inkscape"
   xmlns:sodipodi="http://sodipodi.sourceforge.net/DTD/sodipodi-0.dtd"
   xmlns="http://www.w3.org/2000/svg"
   xmlns:svg="http://www.w3.org/2000/svg">
  <sodipodi:namedview
     id="namedview1"
     pagecolor="#ffffff"
     bordercolor="#000000"
     borderopacity="0.25"
     inkscape:showpageshadow="2"
     inkscape:pageopacity="0.0"
     inkscape:pagecheckerboard="0"
     inkscape:deskcolor="#d1d1d1"
     inkscape:document-units="mm"
     inkscape:zoom="0.71535494"
     inkscape:cx="595.50857"
     inkscape:cy="402.59735"
     inkscape:window-width="1920"
     inkscape:window-height="1017"
     inkscape:window-x="-8"
     inkscape:window-y="-8"
     inkscape:window-maximized="1"
     inkscape:current-layer="layer2"
     showgrid="false" />
  <defs
     id="defs1" />
  <g
     inkscape:label="Capa de eslabon"
     inkscape:groupmode="layer"
     id="layer1">
    <rect
       style="fill:none;stroke:#d2d87b;stroke-width:0.79375;stroke-linecap:butt;stroke-linejoin:miter;stroke-dasharray:none;stroke-opacity:1"
       id="rect1"
       width="81.346176"
       height="18.469469"
       x="12.957047"
       y="65.477592"
       ry="9.2347345" />
    <rect
       style="fill:none;stroke:#81d87b;stroke-width:0.79375;stroke-linecap:butt;stroke-linejoin:miter;stroke-dasharray:none;stroke-opacity:1"
       id="rect2"
       width="81.346176"
       height="18.469469"
       x="-84.796921"
       y="-121.14467"
       ry="9.2347345"
       inkscape:transform-center-x="-22.976588"
       inkscape:transform-center-y="-21.187361"
       transform="rotate(137.79943)" />
    <rect
       style="fill:none;stroke:#d89b7b;stroke-width:0.79375;stroke-linecap:butt;stroke-linejoin:miter;stroke-dasharray:none;stroke-opacity:1"
       id="rect3"
       width="81.346176"
       height="18.469469"
       x="96.418839"
       y="-93.537872"
       ry="9.2347345"
       inkscape:transform-center-x="-19.482799"
       inkscape:transform-center-y="24.838785"
       transform="rotate(52.238591)" />
    <rect
       style="fill:none;stroke:#867bd8;stroke-width:0.79375;stroke-linecap:butt;stroke-linejoin:miter;stroke-dasharray:none;stroke-opacity:1"
       id="rect4"
       width="81.346176"
       height="18.469469"
       x="-22.198517"
       y="172.13498"
       ry="9.2347345"
       inkscape:transform-center-x="20.257197"
       inkscape:transform-center-y="24.588126"
       transform="rotate(-49.176477)" />
    <rect
       style="fill:none;stroke:#d87bcc;stroke-width:0.79375;stroke-linecap:butt;stroke-linejoin:miter;stroke-dasharray:none;stroke-opacity:1"
       id="rect5"
       width="81.346176"
       height="18.469469"
       x="172.87471"
       y="-18.337334"
       ry="9.2347345"
       inkscape:transform-center-x="-22.409536"
       inkscape:transform-center-y="22.886833"
       transform="rotate(47.657005)" />
    <rect
       style="fill:none;stroke:#7bd2d8;stroke-width:0.79375;stroke-linecap:butt;stroke-linejoin:miter;stroke-dasharray:none;stroke-opacity:1"
       id="rect6"
       width="81.346176"
       height="18.469469"
       x="-66.989479"
       y="-254.99037"
       ry="9.2347345"
       inkscape:transform-center-x="-22.435957"
       inkscape:transform-center-y="-22.582445"
       transform="rotate(134.31059)" />
    <rect
       style="fill:none;stroke:#d91a1a;stroke-width:0.79375;stroke-linecap:butt;stroke-linejoin:miter;stroke-dasharray:none;stroke-opacity:1"
       id="rect7"
       width="81.346176"
       height="18.469469"
       x="-102.53452"
       y="225.59831"
       ry="9.2347345"
       inkscape:transform-center-x="-5.8097122"
       inkscape:transform-center-y="-30.652978"
       transform="rotate(-80.627883)" />
  </g>
  <g
     inkscape:groupmode="layer"
     id="layer2"
     inkscape:label="Capa de texto">
    <text
       xml:space="preserve"
       style="font-size:11.2889px;font-family:sans-serif;-inkscape-font-specification:sans-serif;opacity:0.94;fill:#f43602;stroke-width:0.3"
       x="-5.4388056e-07"
       y="48.082184"
       id="text2301"><tspan
         sodipodi:role="line"
         id="tspan2299"
         style="font-size:11.2889px;fill:#000000;stroke-width:0.3"
         x="-5.4388056e-07"
         y="48.082184">ESLABON 1</tspan></text>
    <text
       xml:space="preserve"
       style="font-size:11.2889px;font-family:sans-serif;-inkscape-font-specification:sans-serif;opacity:0.94;fill:#f43602;stroke-width:0.3"
       x="62.938751"
       y="107.29559"
       id="text2301-7"><tspan
         sodipodi:role="line"
         id="tspan2299-7"
         style="font-size:11.2889px;fill:#000000;stroke-width:0.3"
         x="62.938751"
         y="107.29559">ESLABON 2</tspan></text>
    <text
       xml:space="preserve"
       style="font-size:11.2889px;font-family:sans-serif;-inkscape-font-specification:sans-serif;opacity:0.94;fill:#f43602;stroke-width:0.3"
       x="163.91136"
       y="32.21339"
       id="text2301-8"><tspan
         sodipodi:role="line"
         id="tspan2299-5"
         style="font-size:11.2889px;fill:#000000;stroke-width:0.3"
         x="163.91136"
         y="32.21339">ESLABON 3</tspan></text>
    <text
       xml:space="preserve"
       style="font-size:8.74648px;font-family:sans-serif;-inkscape-font-specification:sans-serif;opacity:0.94;fill:#f43602;stroke-width:0.232436"
       x="164.6113"
       y="115.45567"
       id="text2301-3"
       transform="scale(0.93691763,1.0673297)"><tspan
         sodipodi:role="line"
         id="tspan2299-6"
         style="font-size:8.74648px;fill:#000000;stroke-width:0.232436"
         x="164.6113"
         y="115.45567">ESLABON 4</tspan></text>
    <text
       xml:space="preserve"
       style="font-size:11.2889px;font-family:sans-serif;-inkscape-font-specification:sans-serif;opacity:0.94;fill:#f43602;stroke-width:0.3"
       x="71.815468"
       y="164.9942"
       id="text2301-84"><tspan
         sodipodi:role="line"
         id="tspan2299-2"
         style="font-size:11.2889px;fill:#000000;stroke-width:0.3"
         x="71.815468"
         y="164.9942">ESLABON 5</tspan></text>
    <text
       xml:space="preserve"
       style="font-size:11.2889px;font-family:sans-serif;-inkscape-font-specification:sans-serif;opacity:0.94;fill:#f43602;stroke-width:0.3"
       x="206.07573"
       y="193.10381"
       id="text2301-33"><tspan
         sodipodi:role="line"
         id="tspan2299-59"
         style="font-size:11.2889px;fill:#000000;stroke-width:0.3"
         x="206.07573"
         y="193.10381">ESLABON 6</tspan></text>
    <text
       xml:space="preserve"
       style="font-size:11.2889px;font-family:sans-serif;-inkscape-font-specification:sans-serif;opacity:0.94;fill:#f43602;stroke-width:0.3"
       x="230.48669"
       y="125.78873"
       id="text2301-6"><tspan
         sodipodi:role="line"
         id="tspan2299-79"
         style="font-size:11.2889px;fill:#000000;stroke-width:0.3"
         x="230.48669"
         y="125.78873">ESLABON 7</tspan></text>
    <path
       style="opacity:0.94;fill:#000000;stroke-width:0.3"
       id="path2743"
       d="m 20.570396,53.856744 c 0.528547,1.692304 1.033874,3.391471 1.638481,5.05864 0.08044,0.235831 0.164529,0.470448 0.241311,0.707493 0.26361,0.813835 0.10122,0.472694 0.475371,1.286116 0.177128,0.385082 0.394522,0.740217 0.519829,1.146101 -0.138434,-0.305441 0.08209,-0.239879 0.159554,-0.613101 0.0085,-0.04088 -0.08359,-0.0013 -0.125251,0.0016 -1.390877,0.09488 0.955092,-0.04267 -0.852377,0.05934 -0.974484,0.02741 -1.834112,-0.372808 -2.705104,-0.754105 -0.413304,-0.134096 -0.811682,-0.299325 -1.191861,-0.508113 -1.248498,-0.664271 -2.187917,1.10137 -0.939419,1.765641 v 0 c 0.429179,0.223853 0.86491,0.432181 1.329407,0.574686 1.160277,0.507663 2.330978,0.976627 3.62552,0.918374 1.363595,-0.08425 2.933929,-0.253201 2.59213,-2.090841 -0.216378,-0.603687 -0.564545,-1.143614 -0.784028,-1.742684 -0.08264,-0.225557 -0.136845,-0.460589 -0.211014,-0.68907 -0.08096,-0.249415 -0.169553,-0.496292 -0.254329,-0.744439 -0.583254,-1.601579 -1.063088,-3.236376 -1.577935,-4.860645 -0.342997,-1.371989 -2.283282,-0.886918 -1.940285,0.485071 z" />
    <path
       style="opacity:0.94;fill:#000000;stroke-width:0.3"
       id="path2745"
       d="m 26.219893,62.68291 c 0.702535,-1.177168 1.356125,-2.384599 2.139566,-3.510534 0.805723,-1.162243 -0.83794,-2.301708 -1.64366,-1.139462 v 0 c -0.797858,1.154623 -1.478745,2.38202 -2.191903,3.589999 -0.749531,1.19925 0.946465,2.25925 1.695997,1.059997 z" />
    <path
       style="opacity:0.94;fill:#000000;stroke-width:0.3"
       id="path2747"
       d="m 113.47763,92.492699 c 0.18627,-2.430417 0.23791,-4.868913 0.28876,-7.305196 0.0363,-1.776018 0.0423,-3.552415 0.0443,-5.328737 5.3e-4,-1.498238 -7.9e-4,-2.996478 -0.002,-4.494715 -2.7e-4,-0.647155 -5.3e-4,-1.294313 -5.3e-4,-1.94147 -7e-5,-0.290243 -1.3e-4,-0.588238 -1.6e-4,-0.588243 -0.6572,-0.116602 -1.3298,-0.116854 -1.9947,-0.175281 -0.66054,1.691121 -1.03355,3.473997 -1.47852,5.229068 -0.1533,1.135118 -0.81001,2.11772 -1.07724,3.213079 -0.25064,1.391825 1.7177,1.74629 1.96834,0.354465 v 0 c -0.0808,0.144746 -0.057,0.107564 0.0885,-0.240435 0.2801,-0.670076 0.55361,-1.34393 0.75925,-2.041887 0.0771,-0.261824 0.13326,-0.529389 0.19988,-0.794084 0.43316,-1.711229 0.79429,-3.450447 1.44061,-5.098303 -0.63538,-0.148649 -1.25994,-0.355251 -1.90615,-0.44595 -0.0589,-0.0083 5e-5,0.118948 6e-5,0.178421 4e-5,0.136541 7e-5,0.27308 1e-4,0.409618 1.5e-4,0.647324 2.6e-4,1.294648 5.3e-4,1.94197 7.9e-4,1.497163 0.002,2.994324 0.002,4.491487 -0.002,1.76317 -0.008,3.526415 -0.0439,5.289286 -0.0497,2.383787 -0.10014,4.769651 -0.27926,7.147898 -0.14072,1.407197 1.84936,1.606204 1.99007,0.199009 z" />
    <path
       style="opacity:0.94;fill:#000000;stroke-width:0.3"
       id="path2749"
       d="m 113.28767,73.956674 c 0.42996,2.013201 1.01585,3.994965 2.03429,5.790438 0.41403,0.754028 0.88396,1.477504 1.40157,2.163939 0.85734,1.124712 2.44792,-0.08774 1.59059,-1.212455 v 0 c -0.47272,-0.610971 -0.8803,-1.272937 -1.2573,-1.946593 -0.89121,-1.53225 -1.26735,-3.109801 -1.76915,-4.795329 0,-1.414214 -2,-1.414214 -2,0 z" />
    <path
       style="opacity:0.94;fill:#000000;stroke-width:0.3"
       id="path2751"
       d="m 188.66625,37.30947 c -2.28499,1.114131 -4.43661,2.48123 -6.5943,3.820197 -2.32172,1.425604 -4.52214,3.017403 -6.68448,4.669432 -1.20441,0.776727 -2.28665,1.794963 -3.57278,2.44026 -0.15979,0.103045 -0.3201,0.205298 -0.47937,0.309134 -0.48718,0.317603 -0.26237,0.163383 -0.74366,0.542295 -0.0881,0.06934 -0.17294,0.143135 -0.2655,0.206367 -0.0359,0.02455 -0.1608,0.06368 -0.11804,0.05568 0.20107,-0.03764 0.39752,-0.09681 0.59627,-0.145212 0.16435,0.08024 0.31156,0.218059 0.49304,0.240716 0.0916,0.01143 0.066,-0.288714 0.12448,-0.756007 0.10837,-0.865812 0.31434,-1.713953 0.49745,-2.565914 0.0607,-0.292076 0.11435,-0.585703 0.18206,-0.876231 0.0691,-0.296611 0.21731,-0.850884 0.34114,-1.161111 0.0199,-0.0497 0.13722,-0.123438 0.0852,-0.13607 -2.03397,-0.494043 -1.72059,-0.887068 -2.10112,0.136383 -0.50236,1.57068 -0.91581,3.161773 -1.51231,4.700008 -0.20407,0.635804 -0.5451,1.430782 -0.18122,2.095542 0.58193,1.06312 1.77572,1.364657 2.81842,1.738275 1.27282,0.368808 0.64737,0.1924 1.87607,0.530233 1.36363,0.374822 1.89371,-1.553654 0.53007,-1.928476 v 0 c -1.16724,-0.320741 -0.58746,-0.158232 -1.73939,-0.487347 -0.2785,-0.09689 -0.55916,-0.187769 -0.8355,-0.290663 -0.20031,-0.07458 -0.38352,-0.20419 -0.59396,-0.241596 -0.16422,-0.02919 -0.18983,0.40655 -0.22528,0.171886 -0.0322,-0.212894 0.17166,-0.730014 0.21578,-0.865481 0.6039,-1.560804 1.03509,-3.170701 1.53663,-4.76626 0.39552,-1.190815 0.63364,-1.109414 -1.56271,-1.715039 -0.15416,-0.04251 -0.1512,0.282638 -0.20981,0.431421 -0.28353,0.719765 -0.41929,1.491795 -0.57944,2.244297 -0.20128,0.936701 -0.42729,1.870122 -0.53549,2.823744 -0.0432,0.380582 -0.13088,1.36739 0.0324,1.710478 0.16791,0.352716 0.51346,0.588868 0.77019,0.883301 0.32279,-0.0113 0.65091,0.02564 0.96837,-0.03389 0.44095,-0.0827 1.07214,-0.92573 1.54105,-1.077685 1.37205,-0.734764 2.58153,-1.744427 3.86119,-2.623847 2.11075,-1.61299 4.25764,-3.168269 6.52483,-4.559289 2.07253,-1.28641 4.13914,-2.598404 6.3275,-3.681238 1.29986,-0.557085 0.51202,-2.395376 -0.78784,-1.83829 z" />
    <path
       style="opacity:0.94;fill:#000000;stroke-width:0.3"
       id="path2753"
       d="m 174.8214,110.26331 c -1.4007,-1.04129 -2.758,-2.15766 -4.04807,-3.33465 -1.00295,-0.82583 -1.79879,-1.86031 -2.73679,-2.74849 -0.22595,-0.094 -0.44445,-0.35532 -0.67785,-0.28183 -0.46798,0.14735 -0.8813,0.48612 -1.18778,0.86923 -0.23808,0.29761 -0.0802,2.54976 -0.0713,2.98489 0.0179,0.83731 0.0328,1.67468 0.0472,2.51206 0.0243,1.414 2.024,1.37965 1.99971,-0.0344 v 0 c -0.0144,-0.83957 -0.0294,-1.67913 -0.0474,-2.51863 -0.009,-0.43594 -0.0239,-1.08248 -0.0268,-1.52594 -0.001,-0.18125 0.008,-0.36259 0.002,-0.54375 -0.002,-0.0631 0.0368,-0.20123 -0.0249,-0.18776 -1.40524,0.30703 -0.61628,0.67734 -1.37642,0.18919 0.38997,0.35442 0.70689,0.76709 1.06914,1.14921 0.53599,0.56538 1.14169,1.05752 1.6851,1.61537 1.3398,1.21648 2.74191,2.37706 4.19418,3.45546 1.13138,0.84853 2.33137,-0.75147 1.2,-1.6 z" />
    <path
       style="opacity:0.94;fill:#000000;stroke-width:0.3"
       id="path2755"
       d="m 168.68585,104.93151 c 1.75877,0.016 3.51345,0.0158 5.26834,-0.10781 0.26295,-0.0209 0.5259,-0.0419 0.78885,-0.0628 1.40974,-0.11239 1.25079,-2.10607 -0.15895,-1.99367 v 0 c -0.257,0.0205 -0.514,0.041 -0.771,0.0615 -1.70785,0.1213 -3.41555,0.11693 -5.12724,0.10283 -1.41422,0 -1.41422,2 0,2 z" />
    <path
       style="opacity:0.94;fill:#000000;stroke-width:0.3"
       id="path2757"
       d="m 108.71217,171.52365 c 1.20018,1.02092 2.4381,2.03903 3.88545,2.6973 1.71024,0.77783 2.71161,0.97435 4.54579,1.48496 4.36456,1.08746 8.84844,1.53828 13.3358,1.62558 2.40708,-0.0372 4.82916,-0.18843 7.17827,-0.74772 1.03688,-0.24687 1.60762,-0.4613 2.6022,-0.79445 1.80135,-0.82455 3.71419,-1.5557 5.19532,-2.9082 0.67142,-0.86874 0.63782,-1.66619 -0.43092,-2.29139 -0.5284,-0.30911 -2.4467,-0.29497 -3.08534,-0.32145 -1.34095,-0.031 -0.69988,-0.0196 -1.9232,-0.0359 -1.41408,-0.0188 -1.44072,1.98098 -0.0266,1.99982 v 0 c 1.19204,0.0158 0.5694,0.005 1.86787,0.0344 1.89003,0.0766 0.1451,-0.003 1.88431,0.10079 0.13301,0.008 0.3582,0.14329 0.3994,0.0166 0.0622,-0.19122 -0.21155,-0.35991 -0.22246,-0.56068 -0.008,-0.14151 0.20651,-0.698 0.16091,-0.39353 -1.19433,1.21431 -2.9906,1.68106 -4.45637,2.46376 -0.88715,0.29919 -1.4459,0.50834 -2.36604,0.73086 -2.20399,0.533 -4.48001,0.66661 -6.73946,0.70747 -4.32012,-0.0794 -8.63713,-0.51486 -12.84042,-1.55354 -1.57813,-0.43358 -2.63619,-0.6534 -4.10925,-1.30651 -1.28458,-0.56954 -2.371,-1.47335 -3.44101,-2.36236 -1,-1 -2.41421,0.41421 -1.41422,1.41421 z" />
    <path
       style="opacity:0.94;fill:#000000;stroke-width:0.3"
       id="path2759"
       d="m 144.31964,171.84634 c -0.23722,2.01396 -0.42169,4.03177 -0.55752,6.05529 -0.0946,1.41105 1.90088,1.54489 1.99552,0.13384 v 0 c 0.13306,-1.98534 0.3132,-3.96517 0.54656,-5.94106 0.17541,-1.4033 -1.80914,-1.65137 -1.98456,-0.24807 z" />
    <path
       style="opacity:0.94;fill:#000000;stroke-width:0.3"
       id="path2761"
       d="m 235.58047,180.80159 c -0.87502,-2.09721 -1.80567,-4.16091 -2.85509,-6.17753 -1.04544,-2.27336 -2.69942,-4.08664 -4.55219,-5.72234 -0.26985,-0.19958 -0.53547,-0.405 -0.80955,-0.59875 -0.56602,-0.40013 -0.78568,-0.49596 -1.3097,-0.91087 -0.64316,-0.50924 -1.2392,-1.09431 -1.85846,-1.63192 -1.63119,-1.54126 -3.46101,-2.83111 -5.29322,-4.11599 -1.53576,-0.92299 -3.23047,-1.5363 -4.86477,-2.25981 -0.21182,-0.0547 -0.41826,-0.1903 -0.63546,-0.16411 -1.88886,0.22778 -1.62519,1.59644 -1.51484,3.04345 0.0964,1.26403 0.18994,1.83152 0.35782,3.10036 0.22345,1.43039 0.37862,2.87311 0.69605,4.28684 0.31383,1.37895 2.26396,0.93513 1.95013,-0.44382 v 0 c -0.31277,-1.35176 -0.4385,-2.73857 -0.66356,-4.10608 -0.22958,-1.72521 -0.18738,-1.27503 -0.34475,-2.96848 -0.0296,-0.3182 0.0479,-0.66285 -0.081,-0.95527 -0.0438,-0.0995 -0.21541,0.0371 -0.32411,0.0361 -0.17447,-0.002 -0.34715,-0.0435 -0.52163,-0.0435 -0.0919,1e-5 0.1815,0.029 0.27225,0.0435 1.51649,0.67028 3.08293,1.24774 4.52565,2.06834 1.77611,1.24519 3.55137,2.49231 5.13048,3.98887 1.27661,1.1077 2.5261,2.23352 3.9663,3.13156 1.67192,1.4707 3.16875,3.08906 4.10058,5.14546 1.04527,2.00673 1.96217,4.06421 2.8402,6.14837 0.63246,1.26492 2.42131,0.37049 1.78886,-0.89442 z" />
    <path
       style="opacity:0.94;fill:#000000;stroke-width:0.3"
       id="path2763"
       d="m 213.70664,159.93648 c 2.37986,-0.51518 4.74711,-1.07113 7.10322,-1.6855 0.34166,-0.0813 0.68332,-0.16251 1.02498,-0.24376 1.37577,-0.3275 0.91261,-2.27313 -0.46316,-1.94563 v 0 c -0.35548,0.0847 -0.71097,0.16939 -1.06645,0.2541 -2.30761,0.60172 -4.62591,1.14669 -6.95636,1.65305 -1.3914,0.25298 -1.03363,2.22072 0.35777,1.96774 z" />
    <path
       style="opacity:0.94;fill:#000000;stroke-width:0.3"
       id="path2767"
       d="m 259.86649,105.25975 c -0.15843,-0.22766 -0.33123,-0.44597 -0.4753,-0.68299 -0.84263,-1.38628 -1.53577,-2.86925 -2.30669,-4.29466 -1.04137,-1.925467 -0.97612,-1.756665 -2.13169,-3.604981 -1.89912,-2.977039 -4.27756,-5.378085 -7.03404,-7.548914 -1.33197,-1.072322 -2.82398,-1.777537 -4.50265,-2.06261 -1.08652,-0.08651 -2.36629,-0.436705 -2.78915,1.032618 -0.10028,0.348444 0.14793,0.709923 0.2219,1.064882 1.02476,2.325643 1.88908,4.720037 2.93076,7.03779 0.58066,1.289513 2.4043,0.468347 1.82365,-0.821166 v 0 c -1.01539,-2.250393 -1.84255,-4.581904 -2.85254,-6.835429 -0.42224,-0.255153 -0.0971,-0.12419 -0.89768,0.465961 -0.009,0.0067 0.009,-0.02652 0.0204,-0.02721 0.11647,-0.0071 0.23339,0.0013 0.35004,0.0045 0.46343,0.01249 0.41108,0.01442 0.86891,0.05167 1.34924,0.210584 2.52245,0.804891 3.59002,1.661041 2.56538,2.014712 4.81112,4.269872 6.5752,7.038107 1.10808,1.767591 1.04965,1.612119 2.05377,3.468921 0.81176,1.50109 1.54832,3.05365 2.43832,4.51203 0.14872,0.24369 0.32623,0.46861 0.48935,0.70291 0.82199,1.15079 2.44946,-0.0117 1.62746,-1.16248 z" />
    <path
       style="opacity:0.94;fill:#000000;stroke-width:0.3"
       id="path2769"
       d="m 242.08481,87.629943 c 4.39988,-1.241078 8.73433,-2.69694 13.03095,-4.255071 1.32946,-0.482203 0.64753,-2.362351 -0.68194,-1.88015 v 0 c -4.30878,1.563073 -8.65774,3.013315 -13.06697,4.26853 -1.31995,0.507672 -0.60199,2.374363 0.71796,1.866691 z" />
  </g>
</svg>
